# xmcd
#
# Track frame offsets:
#	150
#	13238
#	28467
#	42800
#	60947
#	75812
#	90007
#	108548
#	123999
#	144665
#	160608
#	178886
#	190653
#	208527
#	230943
#	240967
#
# Disc length: 3502 seconds
#
# Revision: 1
# Processed by: cddbd v1.5.1PL2 Copyright (c) Steve Scherf et al.
# Submitted via: audiograbber 1.82.02
#
DISCID=c50dac10
DTITLE=Various Artist - V2 Sampler - Play This CD
DYEAR=2005
DGENRE=Rock
TTITLE0=Madness - Shame and Scandal
TTITLE1=Madness - Lola
TTITLE2=Madness - You Keep Me Hanging On
TTITLE3=Nouvelle Vague - I Melt with You
TTITLE4=Nouvelle Vague - Love Will Tear Us Apart
TTITLE5=Nouvelle Vague - Just Can't Get Enough
TTITLE6=Nouvelle Vague - Guns of Brixton
TTITLE7=Brendan Benson - Cold Hands Warm Heart
TTITLE8=Brendan Benson - Alternative to Love
TTITLE9=Brendan Benson - What I'm Looking For
TTITLE10=The White Stripes - My Doorbell
TTITLE11=The White Stripes - Denial Twist
TTITLE12=Gang of Four - To Hell with Poverty
TTITLE13=Stereophonics - Dakota (You Made Me Feel Like the One)
TTITLE14=The Greenhornes - Pattern Skies
TTITLE15=The Greenhornes - Shelter of Your Arms
EXTD=
EXTT0=
EXTT1=
EXTT2=
EXTT3=
EXTT4=
EXTT5=
EXTT6=
EXTT7=
EXTT8=
EXTT9=
EXTT10=
EXTT11=
EXTT12=
EXTT13=
EXTT14=
EXTT15=
PLAYORDER=
